

<?xml version="1.0" encoding="UTF-8" standalone="no"?><!DOCTYPE svg PUBLIC "-//W3C//DTD SVG 1.1//EN" "http://www.w3.org/Graphics/SVG/1.1/DTD/svg11.dtd"><!-- Generated by graphviz version 2.40.1 (20161225.0304)
 --><!-- Title: G Pages: 1 --><svg xmlns="http://www.w3.org/2000/svg" xmlns:xlink="http://www.w3.org/1999/xlink" width="566pt" height="524pt" viewBox="0.00 0.00 566.00 523.76">
<g id="graph0" class="graph" transform="scale(1 1) rotate(0) translate(4 519.7564)">
<title>G</title>
<polygon fill="#ffffff" stroke="transparent" points="-4,4 -4,-519.7564 562,-519.7564 562,4 -4,4"/>
<!-- A -->
<g id="node1" class="node">
<title>A</title>
<ellipse fill="none" stroke="#000000" cx="207" cy="-486.3408" rx="27" ry="29.3315"/>
<text text-anchor="middle" x="207" y="-490.5408" font-family="Times,serif" font-size="14.00" fill="#000000">A</text>
<text text-anchor="middle" x="207" y="-473.7408" font-family="Times,serif" font-size="14.00" fill="#000000">3</text>
</g>
<!-- B -->
<g id="node2" class="node">
<title>B</title>
<ellipse fill="none" stroke="#000000" cx="135" cy="-391.5095" rx="27" ry="29.3315"/>
<text text-anchor="middle" x="135" y="-395.7095" font-family="Times,serif" font-size="14.00" fill="#000000">B</text>
<text text-anchor="middle" x="135" y="-378.9095" font-family="Times,serif" font-size="14.00" fill="#000000">2</text>
</g>
<!-- A&#45;&gt;B -->
<g id="edge1" class="edge">
<title>A-&gt;B</title>
<path fill="none" stroke="#000000" d="M189.5708,-463.3848C180.1963,-451.0376 168.5081,-435.6431 158.3565,-422.2724"/>
<polygon fill="#000000" stroke="#000000" points="161.1033,-420.1022 152.2687,-414.2541 155.5281,-424.3351 161.1033,-420.1022"/>
</g>
<!-- C -->
<g id="node3" class="node">
<title>C</title>
<ellipse fill="none" stroke="#000000" cx="351" cy="-391.5095" rx="27" ry="29.3315"/>
<text text-anchor="middle" x="351" y="-395.7095" font-family="Times,serif" font-size="14.00" fill="#000000">C</text>
<text text-anchor="middle" x="351" y="-378.9095" font-family="Times,serif" font-size="14.00" fill="#000000">2</text>
</g>
<!-- A&#45;&gt;C -->
<g id="edge2" class="edge">
<title>A-&gt;C</title>
<path fill="none" stroke="#000000" d="M230.1361,-471.1045C254.136,-455.2993 291.8509,-430.4622 318.765,-412.7379"/>
<polygon fill="#000000" stroke="#000000" points="321.0163,-415.4461 327.4429,-407.023 317.1663,-409.6 321.0163,-415.4461"/>
</g>
<!-- D -->
<g id="node4" class="node">
<title>D</title>
<ellipse fill="none" stroke="#000000" cx="27" cy="-296.6782" rx="27" ry="29.3315"/>
<text text-anchor="middle" x="27" y="-300.8782" font-family="Times,serif" font-size="14.00" fill="#000000">D</text>
<text text-anchor="middle" x="27" y="-284.0782" font-family="Times,serif" font-size="14.00" fill="#000000">3</text>
</g>
<!-- B&#45;&gt;D -->
<g id="edge3" class="edge">
<title>B-&gt;D</title>
<path fill="none" stroke="#000000" d="M113.9201,-372.9999C97.4177,-358.5097 74.2822,-338.1952 56.0286,-322.1673"/>
<polygon fill="#000000" stroke="#000000" points="57.8504,-319.1092 48.0267,-315.1411 53.2317,-324.3692 57.8504,-319.1092"/>
</g>
<!-- E -->
<g id="node5" class="node">
<title>E</title>
<ellipse fill="none" stroke="#000000" cx="99" cy="-296.6782" rx="27" ry="29.3315"/>
<text text-anchor="middle" x="99" y="-300.8782" font-family="Times,serif" font-size="14.00" fill="#000000">E</text>
<text text-anchor="middle" x="99" y="-284.0782" font-family="Times,serif" font-size="14.00" fill="#000000">1</text>
</g>
<!-- B&#45;&gt;E -->
<g id="edge4" class="edge">
<title>B-&gt;E</title>
<path fill="none" stroke="#000000" d="M124.5873,-364.0804C120.9679,-354.546 116.8474,-343.692 112.9866,-333.5217"/>
<polygon fill="#000000" stroke="#000000" points="116.2106,-332.1525 109.3893,-324.0457 109.6663,-334.6369 116.2106,-332.1525"/>
</g>
<!-- F -->
<g id="node6" class="node">
<title>F</title>
<ellipse fill="none" stroke="#000000" cx="171" cy="-296.6782" rx="27" ry="29.3315"/>
<text text-anchor="middle" x="171" y="-300.8782" font-family="Times,serif" font-size="14.00" fill="#000000">F</text>
<text text-anchor="middle" x="171" y="-284.0782" font-family="Times,serif" font-size="14.00" fill="#000000">7</text>
</g>
<!-- B&#45;&gt;F -->
<g id="edge5" class="edge">
<title>B-&gt;F</title>
<path fill="none" stroke="#000000" d="M145.4127,-364.0804C149.0321,-354.546 153.1526,-343.692 157.0134,-333.5217"/>
<polygon fill="#000000" stroke="#000000" points="160.3337,-334.6369 160.6107,-324.0457 153.7894,-332.1525 160.3337,-334.6369"/>
</g>
<!-- G -->
<g id="node7" class="node">
<title>G</title>
<ellipse fill="none" stroke="#000000" cx="351" cy="-296.6782" rx="27" ry="29.3315"/>
<text text-anchor="middle" x="351" y="-300.8782" font-family="Times,serif" font-size="14.00" fill="#000000">G</text>
<text text-anchor="middle" x="351" y="-284.0782" font-family="Times,serif" font-size="14.00" fill="#000000">1</text>
</g>
<!-- C&#45;&gt;G -->
<g id="edge6" class="edge">
<title>C-&gt;G</title>
<path fill="none" stroke="#000000" d="M351,-362.0241C351,-353.9067 351,-344.9671 351,-336.3749"/>
<polygon fill="#000000" stroke="#000000" points="354.5001,-336.1453 351,-326.1454 347.5001,-336.1454 354.5001,-336.1453"/>
</g>
<!-- H -->
<g id="node8" class="node">
<title>H</title>
<ellipse fill="none" stroke="#000000" cx="459" cy="-296.6782" rx="27" ry="29.3315"/>
<text text-anchor="middle" x="459" y="-300.8782" font-family="Times,serif" font-size="14.00" fill="#000000">H</text>
<text text-anchor="middle" x="459" y="-284.0782" font-family="Times,serif" font-size="14.00" fill="#000000">6</text>
</g>
<!-- C&#45;&gt;H -->
<g id="edge7" class="edge">
<title>C-&gt;H</title>
<path fill="none" stroke="#000000" d="M372.0799,-372.9999C388.5823,-358.5097 411.7178,-338.1952 429.9714,-322.1673"/>
<polygon fill="#000000" stroke="#000000" points="432.7683,-324.3692 437.9733,-315.1411 428.1496,-319.1092 432.7683,-324.3692"/>
</g>
<!-- I -->
<g id="node9" class="node">
<title>I</title>
<ellipse fill="none" stroke="#000000" cx="27" cy="-201.8469" rx="27" ry="29.3315"/>
<text text-anchor="middle" x="27" y="-206.0469" font-family="Times,serif" font-size="14.00" fill="#000000">I</text>
<text text-anchor="middle" x="27" y="-189.2469" font-family="Times,serif" font-size="14.00" fill="#000000">10</text>
</g>
<!-- D&#45;&gt;I -->
<g id="edge8" class="edge">
<title>D-&gt;I</title>
<path fill="none" stroke="#000000" d="M27,-267.1928C27,-259.0754 27,-250.1358 27,-241.5436"/>
<polygon fill="#000000" stroke="#000000" points="30.5001,-241.314 27,-231.3141 23.5001,-241.3141 30.5001,-241.314"/>
</g>
<!-- J -->
<g id="node10" class="node">
<title>J</title>
<ellipse fill="none" stroke="#000000" cx="99" cy="-201.8469" rx="27" ry="29.3315"/>
<text text-anchor="middle" x="99" y="-206.0469" font-family="Times,serif" font-size="14.00" fill="#000000">J</text>
<text text-anchor="middle" x="99" y="-189.2469" font-family="Times,serif" font-size="14.00" fill="#000000">0</text>
</g>
<!-- E&#45;&gt;J -->
<g id="edge9" class="edge">
<title>E-&gt;J</title>
<path fill="none" stroke="#000000" d="M99,-267.1928C99,-259.0754 99,-250.1358 99,-241.5436"/>
<polygon fill="#000000" stroke="#000000" points="102.5001,-241.314 99,-231.3141 95.5001,-241.3141 102.5001,-241.314"/>
</g>
<!-- L -->
<g id="node12" class="node">
<title>L</title>
<ellipse fill="none" stroke="#000000" cx="171" cy="-201.8469" rx="27" ry="29.3315"/>
<text text-anchor="middle" x="171" y="-206.0469" font-family="Times,serif" font-size="14.00" fill="#000000">L</text>
<text text-anchor="middle" x="171" y="-189.2469" font-family="Times,serif" font-size="14.00" fill="#000000">6</text>
</g>
<!-- F&#45;&gt;L -->
<g id="edge10" class="edge">
<title>F-&gt;L</title>
<path fill="none" stroke="#000000" d="M171,-267.1928C171,-259.0754 171,-250.1358 171,-241.5436"/>
<polygon fill="#000000" stroke="#000000" points="174.5001,-241.314 171,-231.3141 167.5001,-241.3141 174.5001,-241.314"/>
</g>
<!-- M -->
<g id="node13" class="node">
<title>M</title>
<ellipse fill="none" stroke="#000000" cx="243" cy="-201.8469" rx="27" ry="29.3315"/>
<text text-anchor="middle" x="243" y="-206.0469" font-family="Times,serif" font-size="14.00" fill="#000000">M</text>
<text text-anchor="middle" x="243" y="-189.2469" font-family="Times,serif" font-size="14.00" fill="#000000">4</text>
</g>
<!-- F&#45;&gt;M -->
<g id="edge11" class="edge">
<title>F-&gt;M</title>
<path fill="none" stroke="#000000" d="M188.4292,-273.7222C197.8037,-261.375 209.4919,-245.9805 219.6435,-232.6098"/>
<polygon fill="#000000" stroke="#000000" points="222.4719,-234.6725 225.7313,-224.5915 216.8967,-230.4396 222.4719,-234.6725"/>
</g>
<!-- N -->
<g id="node14" class="node">
<title>N</title>
<polygon fill="none" stroke="#000000" points="342,-222.4488 288,-222.4488 288,-181.245 342,-181.245 342,-222.4488"/>
<text text-anchor="middle" x="315" y="-206.0469" font-family="Times,serif" font-size="14.00" fill="#000000">N</text>
<text text-anchor="middle" x="315" y="-189.2469" font-family="Times,serif" font-size="14.00" fill="#000000">0</text>
</g>
<!-- G&#45;&gt;N -->
<g id="edge12" class="edge">
<title>G-&gt;N</title>
<path fill="none" stroke="#000000" d="M340.5873,-269.2491C336.1745,-257.625 331.0171,-244.0392 326.4933,-232.1226"/>
<polygon fill="#000000" stroke="#000000" points="329.6938,-230.6916 322.8725,-222.5848 323.1495,-233.176 329.6938,-230.6916"/>
</g>
<!-- O -->
<g id="node15" class="node">
<title>O</title>
<ellipse fill="none" stroke="#000000" cx="387" cy="-201.8469" rx="27" ry="29.3315"/>
<text text-anchor="middle" x="387" y="-206.0469" font-family="Times,serif" font-size="14.00" fill="#000000">O</text>
<text text-anchor="middle" x="387" y="-189.2469" font-family="Times,serif" font-size="14.00" fill="#000000">5</text>
</g>
<!-- G&#45;&gt;O -->
<g id="edge13" class="edge">
<title>G-&gt;O</title>
<path fill="none" stroke="#000000" d="M361.4127,-269.2491C365.0321,-259.7147 369.1526,-248.8607 373.0134,-238.6904"/>
<polygon fill="#000000" stroke="#000000" points="376.3337,-239.8056 376.6107,-229.2144 369.7894,-237.3212 376.3337,-239.8056"/>
</g>
<!-- P -->
<g id="node16" class="node">
<title>P</title>
<ellipse fill="none" stroke="#000000" cx="459" cy="-201.8469" rx="27" ry="29.3315"/>
<text text-anchor="middle" x="459" y="-206.0469" font-family="Times,serif" font-size="14.00" fill="#000000">P</text>
<text text-anchor="middle" x="459" y="-189.2469" font-family="Times,serif" font-size="14.00" fill="#000000">9</text>
</g>
<!-- H&#45;&gt;P -->
<g id="edge14" class="edge">
<title>H-&gt;P</title>
<path fill="none" stroke="#000000" d="M459,-267.1928C459,-259.0754 459,-250.1358 459,-241.5436"/>
<polygon fill="#000000" stroke="#000000" points="462.5001,-241.314 459,-231.3141 455.5001,-241.3141 462.5001,-241.314"/>
</g>
<!-- Q -->
<g id="node17" class="node">
<title>Q</title>
<ellipse fill="none" stroke="#000000" cx="531" cy="-201.8469" rx="27" ry="29.3315"/>
<text text-anchor="middle" x="531" y="-206.0469" font-family="Times,serif" font-size="14.00" fill="#000000">Q</text>
<text text-anchor="middle" x="531" y="-189.2469" font-family="Times,serif" font-size="14.00" fill="#000000">1</text>
</g>
<!-- H&#45;&gt;Q -->
<g id="edge15" class="edge">
<title>H-&gt;Q</title>
<path fill="none" stroke="#000000" d="M476.4292,-273.7222C485.8037,-261.375 497.4919,-245.9805 507.6435,-232.6098"/>
<polygon fill="#000000" stroke="#000000" points="510.4719,-234.6725 513.7313,-224.5915 504.8967,-230.4396 510.4719,-234.6725"/>
</g>
<!-- K -->
<g id="node11" class="node">
<title>K</title>
<ellipse fill="none" stroke="#000000" cx="99" cy="-107.0156" rx="27" ry="29.3315"/>
<text text-anchor="middle" x="99" y="-111.2156" font-family="Times,serif" font-size="14.00" fill="#000000">K</text>
<text text-anchor="middle" x="99" y="-94.4156" font-family="Times,serif" font-size="14.00" fill="#000000">0</text>
</g>
<!-- J&#45;&gt;K -->
<g id="edge16" class="edge">
<title>J-&gt;K</title>
<path fill="none" stroke="#000000" d="M99,-172.3615C99,-164.2441 99,-155.3045 99,-146.7123"/>
<polygon fill="#000000" stroke="#000000" points="102.5001,-146.4828 99,-136.4828 95.5001,-146.4828 102.5001,-146.4828"/>
</g>
<!-- R -->
<g id="node18" class="node">
<title>R</title>
<polygon fill="none" stroke="#000000" points="126,-41.4019 72,-41.4019 72,-.1981 126,-.1981 126,-41.4019"/>
<text text-anchor="middle" x="99" y="-25" font-family="Times,serif" font-size="14.00" fill="#000000">R</text>
<text text-anchor="middle" x="99" y="-8.2" font-family="Times,serif" font-size="14.00" fill="#000000">0</text>
</g>
<!-- K&#45;&gt;R -->
<g id="edge17" class="edge">
<title>K-&gt;R</title>
<path fill="none" stroke="#000000" d="M99,-77.3451C99,-69.0569 99,-60.0324 99,-51.6764"/>
<polygon fill="#000000" stroke="#000000" points="102.5001,-51.5553 99,-41.5554 95.5001,-51.5554 102.5001,-51.5553"/>
</g>
</g>
</svg>
